<?xml version="1.0" standalone="no"?>
<!DOCTYPE svg PUBLIC "-//W3C//DTD SVG 20010904//EN"
 "http://www.w3.org/TR/2001/REC-SVG-20010904/DTD/svg10.dtd">
<svg version="1.0" xmlns="http://www.w3.org/2000/svg"
 width="700.000000pt" height="700.000000pt" viewBox="0 0 700.000000 700.000000"
 preserveAspectRatio="xMidYMid meet">
<metadata>
Created by potrace 1.14, written by Peter Selinger 2001-2017
</metadata>
<g transform="translate(0.000000,700.000000) scale(0.100000,-0.100000)"
fill="#000000" stroke="none">
<path d="M3419 6484 c-1 -21 -2 -50 -4 -64 -1 -14 -5 -60 -9 -103 -4 -43 -9
-88 -11 -100 -2 -12 -6 -58 -10 -102 -3 -44 -7 -93 -9 -110 -2 -16 -7 -66 -11
-110 -4 -44 -8 -91 -10 -105 -9 -97 -18 -189 -20 -210 -2 -14 -6 -61 -10 -105
-3 -44 -8 -92 -11 -107 l-4 -28 77 -1 c43 -1 89 -2 103 -3 24 -1 25 1 24 54
-1 30 -4 96 -8 145 -14 173 -15 190 -21 258 -5 63 -9 116 -20 262 -30 389 -36
459 -41 464 -2 2 -4 -13 -5 -35z"/>
<path d="M2116 6435 c3 -11 14 -42 24 -70 25 -71 170 -488 240 -690 121 -352
172 -500 175 -503 1 -1 34 10 73 25 58 23 71 31 66 46 -3 9 -48 106 -101 215
-105 218 -173 359 -270 562 -96 200 -214 438 -207 415z"/>
<path d="M4612 6312 c-38 -81 -158 -328 -394 -812 -136 -277 -142 -291 -126
-302 7 -4 18 -8 24 -8 5 0 29 -9 52 -20 54 -26 57 -26 69 13 16 47 94 269 158
452 167 472 265 758 262 762 -2 2 -22 -36 -45 -85z"/>
<path d="M2809 6105 c-3 -25 13 -210 25 -290 3 -22 10 -83 16 -135 8 -67 19
-113 39 -155 27 -60 85 -135 102 -135 17 0 31 87 26 165 -4 66 -14 103 -56
210 -124 311 -149 366 -152 340z"/>
<path d="M3876 6033 c-13 -43 -47 -158 -75 -255 -53 -188 -57 -237 -31 -341
15 -57 25 -65 51 -41 24 21 75 129 84 175 9 53 14 539 5 539 -5 0 -20 -35 -34
-77z"/>
<path d="M5925 5852 c-22 -20 -87 -78 -144 -127 -58 -50 -123 -106 -145 -126
-23 -20 -97 -85 -166 -145 -69 -60 -127 -111 -130 -114 -3 -3 -36 -32 -75 -65
-38 -33 -72 -62 -75 -65 -3 -3 -39 -34 -80 -70 -41 -36 -77 -67 -80 -70 -3 -3
-73 -65 -156 -137 l-151 -132 76 -79 c42 -43 81 -77 86 -75 6 3 64 67 130 144
66 76 131 151 145 166 46 51 584 664 630 718 25 29 78 89 119 134 76 84 85
108 16 43z"/>
<path d="M1810 5687 c0 -11 16 -49 36 -85 185 -339 202 -368 245 -410 51 -49
138 -104 152 -95 16 10 -4 98 -38 168 -28 59 -62 100 -214 255 -118 121 -180
179 -181 167z"/>
<path d="M1039 5645 c25 -27 52 -57 60 -66 9 -9 25 -27 35 -40 26 -32 330
-379 361 -413 6 -6 35 -40 65 -75 30 -35 64 -74 75 -86 11 -11 45 -49 75 -84
30 -35 73 -84 95 -109 22 -25 46 -53 53 -63 7 -11 18 -19 24 -19 12 0 148 131
148 142 0 6 -62 59 -290 246 -24 21 -65 54 -90 76 -56 47 -66 55 -165 136 -44
36 -82 67 -85 70 -4 5 -336 280 -385 319 -11 9 0 -6 24 -34z"/>
<path d="M4838 5603 c-40 -49 -95 -117 -123 -153 -27 -36 -52 -67 -55 -70 -21
-19 -74 -96 -90 -132 -21 -48 -44 -173 -35 -189 11 -16 84 33 140 92 32 36 62
81 78 120 14 35 51 123 83 194 79 182 95 225 84 225 -5 0 -42 -39 -82 -87z"/>
<path d="M3257 5184 c-1 -1 -33 -4 -72 -8 -76 -6 -90 -9 -210 -32 -213 -43
-525 -180 -677 -298 -14 -12 -41 -32 -59 -46 -207 -155 -407 -402 -525 -648
-78 -164 -159 -431 -163 -538 -1 -14 -29 -42 -83 -85 -99 -77 -96 -75 -187
-84 -40 -3 -82 -8 -93 -10 -11 -3 -55 -7 -96 -11 -42 -3 -83 -7 -91 -9 -9 -2
-45 -6 -81 -9 -36 -4 -99 -11 -140 -16 -41 -5 -102 -11 -135 -15 -33 -3 -76
-7 -95 -10 -19 -2 -62 -7 -95 -10 -33 -3 -96 -10 -140 -15 -44 -6 -97 -12
-117 -13 -59 -5 -57 -17 3 -18 30 -1 72 -2 94 -3 176 -10 316 -18 350 -21 22
-2 108 -6 190 -10 83 -4 158 -9 168 -11 10 -1 51 -4 92 -5 41 -1 75 -4 75 -6
0 -2 -29 -41 -63 -86 -35 -45 -82 -109 -105 -143 -36 -53 -48 -64 -99 -84 -85
-32 -133 -51 -178 -71 -22 -9 -57 -24 -78 -33 -21 -8 -36 -20 -32 -25 3 -6 11
-8 18 -6 7 2 48 6 92 10 44 4 99 8 121 10 l42 4 -43 -87 c-40 -82 -105 -247
-140 -357 -13 -41 -22 -53 -53 -67 -39 -19 -270 -127 -337 -158 -72 -34 -23
-21 169 44 l188 64 -6 -26 c-3 -15 -8 -36 -11 -47 -20 -83 -44 -231 -53 -319
-14 -159 -7 -529 12 -622 2 -12 7 -45 11 -75 12 -96 75 -328 124 -458 95 -250
227 -483 384 -673 l39 -48 2914 0 2914 0 0 405 c0 258 -4 405 -10 405 -5 0
-27 -7 -47 -15 -215 -83 -818 -281 -1008 -330 -85 -22 -315 -76 -345 -81 -14
-3 -36 -7 -50 -9 -14 -3 -37 -8 -52 -10 -16 -3 -40 -7 -55 -10 -49 -9 -146
-24 -203 -31 -30 -4 -66 -8 -80 -10 -146 -20 -577 -26 -715 -11 -38 4 -86 9
-106 11 -170 18 -466 102 -577 163 -24 14 -50 22 -58 19 -8 -3 -13 -2 -10 3 3
4 -7 14 -22 22 -139 73 -307 222 -403 360 -73 105 -159 298 -174 394 -3 17 -8
44 -12 60 -9 41 -10 48 -18 138 l-6 78 28 -6 c83 -15 169 -16 203 -1 40 16
135 15 168 -3 32 -17 99 -13 246 14 388 72 764 278 1010 554 17 19 46 50 64
70 56 62 180 253 232 359 129 259 190 518 192 808 3 348 -101 707 -287 995
-229 354 -567 617 -961 748 -138 46 -254 72 -389 87 -55 6 -292 13 -298 8z"/>
<path d="M1030 4921 c0 -4 15 -21 33 -37 30 -28 63 -54 267 -219 47 -37 111
-80 143 -96 58 -27 166 -47 187 -34 23 14 -73 137 -139 178 -66 40 -491 221
-491 208z"/>
<path d="M5549 4846 c-268 -145 -305 -168 -351 -213 -49 -48 -108 -146 -95
-159 11 -12 118 16 177 47 62 31 431 381 414 392 -6 3 -71 -27 -145 -67z"/>
<path d="M915 4381 c373 -186 602 -295 604 -288 4 12 51 117 57 128 4 6 -6 10
-641 239 -231 83 -458 165 -505 182 -47 17 -92 33 -100 35 -8 2 255 -131 585
-296z"/>
<path d="M6375 4478 c-85 -28 -285 -91 -455 -143 -41 -13 -205 -64 -365 -115
-159 -50 -294 -93 -300 -94 -44 -10 -56 -19 -50 -34 4 -10 16 -43 27 -74 11
-32 22 -58 24 -58 3 0 260 113 405 178 41 19 166 74 269 120 595 265 628 281
445 220z"/>
<path d="M610 3910 c0 -12 105 -47 350 -116 113 -32 149 -38 220 -37 83 1 160
22 160 43 0 10 -83 70 -98 70 -5 0 -23 7 -39 15 -17 8 -48 18 -69 20 -64 9
-524 13 -524 5z"/>
<path d="M6027 3904 c-1 -1 -36 -5 -77 -8 -41 -4 -84 -9 -95 -11 -19 -4 -70
-10 -188 -21 -68 -7 -133 -30 -194 -71 -61 -40 -80 -60 -67 -73 16 -15 119
-29 175 -24 75 7 553 194 531 208 -8 5 -78 5 -85 0z"/>
<path d="M5349 3429 c0 -2 -1 -50 -2 -107 l-3 -103 81 6 c44 3 96 8 115 10 33
4 65 7 222 20 35 3 79 8 98 10 19 3 67 7 105 10 39 4 88 8 110 10 22 2 72 6
110 10 39 3 86 8 105 10 19 3 67 7 105 10 39 3 86 7 105 10 19 2 57 5 83 6 68
3 67 15 -1 18 -31 2 -77 4 -102 6 -177 12 -240 16 -275 20 -22 2 -96 7 -165
10 -69 4 -141 8 -160 10 -19 2 -82 7 -140 10 -58 4 -123 8 -145 10 -117 10
-245 17 -246 14z"/>
<path d="M5446 2945 c-70 -20 -74 -28 -25 -64 66 -48 142 -72 239 -77 168 -7
437 -7 450 1 13 8 -56 31 -358 119 -134 39 -217 45 -306 21z"/>
<path d="M5163 2518 c-18 -39 -32 -72 -30 -74 1 -1 81 -32 177 -69 96 -37 243
-93 325 -125 83 -31 224 -85 315 -120 91 -34 174 -66 185 -71 11 -5 34 -14 50
-20 17 -6 66 -24 110 -41 44 -16 76 -25 70 -20 -5 5 -91 51 -190 102 -172 89
-261 135 -460 240 -49 26 -157 82 -240 125 -82 43 -178 93 -213 111 -35 19
-64 34 -65 34 -1 0 -17 -32 -34 -72z"/>
<path d="M5060 2173 c0 -17 59 -99 97 -134 41 -38 77 -56 275 -143 185 -81
258 -109 265 -102 3 3 -5 14 -18 25 -13 10 -35 29 -49 41 -113 100 -339 269
-387 288 -60 25 -183 41 -183 25z"/>
<path d="M4736 1923 l-80 -76 35 -30 c18 -17 70 -62 113 -101 44 -39 100 -89
125 -111 25 -22 51 -45 58 -52 7 -6 25 -10 40 -8 16 2 56 7 91 10 34 4 62 10
62 13 0 4 -66 89 -80 102 -3 3 -30 34 -60 70 -30 36 -57 67 -60 70 -3 3 -38
44 -79 93 -40 48 -76 89 -80 91 -3 2 -42 -30 -85 -71z"/>
<path d="M6380 1966 c0 -2 7 -7 16 -10 8 -3 12 -2 9 4 -6 10 -25 14 -25 6z"/>
<path d="M6965 1724 c-16 -8 -106 -43 -200 -80 -93 -36 -179 -69 -190 -74 -46
-21 -466 -184 -670 -259 -121 -45 -242 -91 -270 -101 -185 -69 -354 -123 -565
-181 -202 -56 -390 -82 -585 -83 -293 -1 -461 37 -1183 269 l-42 14 6 -27 c10
-43 65 -174 86 -204 10 -14 18 -29 18 -32 0 -3 20 -32 45 -64 174 -230 461
-374 858 -432 158 -23 396 -30 587 -16 174 12 214 16 340 37 69 11 141 22 160
25 19 3 63 12 98 20 34 7 77 16 95 19 34 6 308 76 394 101 29 8 56 16 60 16 5
1 123 41 263 89 140 48 343 117 450 154 107 36 214 73 238 82 l42 16 0 157 0
157 -47 -13 c-27 -7 -136 -38 -243 -68 -187 -54 -257 -67 -174 -34 21 9 77 34
124 56 47 22 139 63 205 92 66 29 123 56 128 59 4 4 6 77 5 163 l-3 155 -30
-13z"/>
<path d="M4055 1496 c-33 -13 -60 -28 -59 -32 1 -24 25 -63 41 -67 46 -13 154
-30 153 -24 -4 31 -52 143 -62 144 -7 1 -40 -9 -73 -21z"/>
</g>
</svg>
